<?xml version="1.0" standalone="no"?>
<!DOCTYPE svg PUBLIC "-//W3C//DTD SVG 20010904//EN"
 "http://www.w3.org/TR/2001/REC-SVG-20010904/DTD/svg10.dtd">
<svg version="1.0" xmlns="http://www.w3.org/2000/svg"
 width="408.000000pt" height="612.000000pt" viewBox="0 0 408.000000 612.000000"
 preserveAspectRatio="xMidYMid meet">

<g transform="translate(0.000000,612.000000) scale(0.100000,-0.100000)"
fill="#000000" stroke="none">
<path d="M1548 4213 c-10 -2 -18 -9 -18 -14 0 -5 -17 -9 -38 -9 -100 0 -338
-104 -435 -190 -31 -29 -70 -71 -86 -93 -16 -23 -75 -89 -131 -145 -86 -88
-107 -117 -140 -187 -21 -46 -44 -103 -50 -127 -15 -54 -18 -154 -6 -193 9
-29 10 -27 16 25 4 30 14 71 22 90 14 33 15 31 10 -63 -5 -110 15 -212 49
-243 18 -17 19 -16 20 32 l1 49 10 -45 c5 -25 17 -53 26 -63 13 -15 14 -22 4
-37 -7 -11 -12 -25 -12 -32 0 -7 8 2 17 20 9 18 24 37 34 42 28 16 92 -59 145
-169 34 -70 48 -91 55 -80 5 8 6 27 3 42 -3 16 -3 49 1 74 5 37 9 43 23 38 9
-4 26 -10 37 -13 18 -5 19 -4 5 13 -13 17 -10 16 21 -3 20 -12 47 -22 59 -22
20 0 21 2 9 16 -9 12 -3 10 21 -5 47 -29 53 -27 34 12 l-17 32 26 -27 c34 -37
107 -56 190 -50 61 4 66 6 55 21 -11 14 -11 14 2 5 8 -6 29 -14 45 -18 17 -4
39 -10 50 -13 18 -5 19 -4 5 12 -14 17 -14 17 17 2 17 -9 35 -21 38 -27 8 -13
80 -13 123 -1 24 7 32 6 32 -3 0 -11 14 -11 73 -1 39 7 85 17 102 24 28 12 28
11 12 -7 -26 -29 -21 -34 33 -30 31 2 46 0 40 -7 -22 -21 -6 -26 78 -22 56 3
101 11 121 21 32 17 32 17 21 -4 -11 -21 -10 -22 22 -15 18 4 45 14 61 21 29
16 32 13 17 -16 -8 -15 -6 -17 10 -13 11 3 20 4 20 2 0 -2 -9 -38 -20 -79 -25
-97 -25 -114 1 -65 47 89 132 215 145 215 7 0 18 -15 24 -32 l10 -33 -5 32
c-4 28 1 38 38 73 29 27 48 38 62 34 16 -4 17 -3 5 5 -12 8 -12 12 3 29 9 10
17 21 17 25 0 4 15 39 34 79 19 40 36 82 39 93 l5 20 1 -20 c0 -11 -6 -47 -13
-80 -8 -33 -13 -62 -11 -64 6 -6 44 62 56 99 23 74 23 181 0 275 -25 99 -52
157 -124 265 -90 135 -198 257 -303 341 -103 82 -269 149 -370 149 -48 0 -172
-35 -193 -55 -19 -18 -67 -3 -106 35 -44 43 -125 67 -177 53z"/>
<path d="M782 2925 c0 -16 2 -22 5 -12 2 9 2 23 0 30 -3 6 -5 -1 -5 -18z"/>
<path d="M834 2915 c-18 -45 -19 -61 -1 -46 8 6 18 7 23 3 4 -4 3 0 -4 9 -16
21 -5 49 17 49 19 0 54 -35 65 -64 5 -14 3 -17 -11 -12 -10 4 -14 4 -10 0 4
-4 2 -13 -4 -20 -29 -35 -29 -143 0 -136 6 1 10 -3 8 -10 -1 -6 26 -26 61 -44
34 -18 62 -28 62 -23 0 6 -14 30 -31 54 -23 32 -32 56 -35 101 -5 59 -23 98
-68 147 -34 36 -54 34 -72 -8z"/>
<path d="M782 2825 c-1 -16 5 -43 13 -60 12 -24 14 -25 8 -5 -3 14 -10 41 -14
60 -7 34 -7 34 -7 5z"/>
<path d="M2496 2789 c-14 -11 -26 -25 -26 -32 0 -6 9 -1 20 11 29 31 38 28 43
-15 l4 -38 1 42 c2 51 -8 59 -42 32z"/>
<path d="M2582 2760 c0 -14 2 -19 5 -12 2 6 2 18 0 25 -3 6 -5 1 -5 -13z"/>
<path d="M1896 2713 c25 -57 27 -87 9 -124 l-16 -34 21 24 c26 30 26 80 0 131
-26 51 -36 52 -14 3z"/>
<path d="M810 2725 c0 -5 5 -17 10 -25 5 -8 10 -10 10 -5 0 6 -5 17 -10 25 -5
8 -10 11 -10 5z"/>
<path d="M2443 2715 c-6 -11 -14 -36 -18 -55 -4 -19 -13 -43 -20 -54 -13 -17
-14 -17 -17 5 -2 15 -9 -2 -16 -42 -17 -92 -46 -174 -88 -243 -19 -33 -28 -54
-20 -47 8 7 27 33 41 57 14 24 30 44 35 44 5 0 7 6 5 13 -3 6 3 38 13 70 14
45 26 63 51 78 23 14 31 25 27 36 -5 13 -4 14 8 4 18 -15 23 -7 30 49 4 28 1
56 -7 75 -13 28 -14 29 -24 10z m12 -37 c-4 -18 -11 -37 -17 -43 -7 -7 -8 -2
-3 15 3 14 9 33 11 43 9 29 15 19 9 -15z m-44 -105 c-11 -5 -11 -7 0 -15 11
-8 10 -9 -3 -4 -10 3 -18 0 -18 -6 0 -6 -3 -8 -6 -5 -9 8 15 37 30 36 6 0 5
-3 -3 -6z"/>
<path d="M3834 2722 c8 -13 66 -56 66 -49 0 3 -17 17 -37 33 -20 15 -33 23
-29 16z"/>
<path d="M2542 2645 c-12 -25 -20 -45 -17 -45 7 0 47 81 43 86 -3 2 -14 -17
-26 -41z"/>
<path d="M857 2629 c10 -18 38 -52 62 -78 33 -35 35 -36 9 -6 -18 22 -44 57
-56 78 -28 45 -41 50 -15 6z"/>
<path d="M3920 2657 c0 -2 24 -24 53 -48 28 -24 46 -36 38 -26 -16 20 -91 81
-91 74z"/>
<path d="M1690 2599 c0 -6 7 -8 16 -5 8 3 28 -1 44 -9 40 -21 50 -18 20 5 -27
21 -80 27 -80 9z"/>
<path d="M1865 2590 c-27 -30 -12 -34 15 -5 13 14 19 25 13 25 -5 0 -18 -9
-28 -20z"/>
<path d="M1058 2537 c-2 -24 0 -37 8 -37 6 0 26 -38 44 -85 18 -47 37 -88 41
-91 5 -2 1 12 -8 33 -9 21 -30 78 -48 127 -31 86 -33 88 -37 53z"/>
<path d="M4050 2546 c0 -2 8 -10 18 -17 15 -13 16 -12 3 4 -13 16 -21 21 -21
13z"/>
<path d="M1008 2493 c6 -2 18 -2 25 0 6 3 1 5 -13 5 -14 0 -19 -2 -12 -5z"/>
<path d="M2400 2435 c-24 -25 -42 -45 -39 -45 3 0 25 20 49 45 24 25 42 45 39
45 -3 0 -25 -20 -49 -45z"/>
<path d="M1412 2440 c2 -18 15 -26 63 -40 58 -17 282 -46 291 -38 2 3 -40 10
-94 17 -154 19 -200 30 -233 58 l-31 26 4 -23z"/>
<path d="M3310 2425 c13 -14 26 -25 28 -25 3 0 -5 11 -18 25 -13 14 -26 25
-28 25 -3 0 5 -11 18 -25z"/>
<path d="M2034 2370 c-5 -5 -66 -11 -134 -13 l-125 -3 139 1 c102 0 140 3 144
13 4 14 -10 16 -24 2z"/>
<path d="M1160 2304 c0 -5 7 -18 15 -28 11 -15 15 -48 15 -128 0 -129 9 -116
-155 -221 -128 -82 -211 -112 -370 -133 -251 -33 -316 -47 -386 -80 -39 -19
-85 -45 -104 -59 -44 -35 -107 -117 -145 -191 l-30 -59 0 -607 0 -607 58 -11
c91 -19 192 -52 192 -63 0 -6 3 -8 6 -4 3 3 19 1 35 -5 26 -9 28 -12 17 -27
-11 -14 -11 -14 4 -3 12 10 21 10 35 3 10 -6 40 -20 66 -31 27 -11 46 -24 42
-30 -3 -5 0 -7 8 -4 8 3 18 1 22 -5 4 -8 334 -11 1096 -11 l1089 0 0 38 c-1
20 -5 125 -9 232 -12 267 -13 258 73 330 85 72 130 88 356 126 85 14 215 36
287 48 93 16 139 29 154 42 35 31 141 288 180 434 12 47 29 94 38 104 15 18
15 19 -4 11 -11 -4 -27 -8 -36 -9 -9 -1 -24 -10 -34 -19 -17 -18 -81 -53 -145
-79 l-35 -15 7 246 c10 359 39 479 123 508 36 13 43 12 75 -6 37 -20 159 -55
167 -48 2 3 -27 14 -64 25 -37 12 -90 35 -117 52 -32 20 -47 26 -43 16 7 -18
-20 -36 -55 -36 -41 0 -202 -60 -219 -81 -8 -12 -29 -22 -45 -24 -16 -1 -63
-6 -104 -10 -82 -8 -124 -25 -140 -54 -16 -31 -65 -36 -99 -12 -35 25 -90 27
-132 6 -28 -15 -31 -14 -63 10 -41 31 -135 51 -176 36 -16 -5 -70 -7 -123 -4
-105 6 -158 -3 -249 -44 -52 -23 -60 -24 -80 -11 -13 8 -43 18 -68 22 -73 11
-111 27 -119 49 -6 16 -14 -5 -34 -88 -15 -61 -29 -133 -32 -160 -3 -34 2 -21
15 39 11 49 22 92 25 94 9 9 56 -42 71 -77 8 -20 14 -68 14 -117 0 -73 -2 -84
-17 -84 -12 0 -14 -3 -6 -8 28 -18 -64 -190 -128 -238 -19 -15 -52 -35 -74
-45 -110 -51 -284 8 -436 149 -68 63 -164 181 -155 190 3 2 48 -12 101 -32 52
-20 101 -36 108 -36 6 0 -33 18 -89 39 -55 21 -109 43 -120 49 -26 14 -88 128
-78 145 4 6 3 8 -1 4 -10 -9 -48 80 -40 93 3 5 1 11 -5 15 -5 3 -10 14 -10 23
0 15 2 15 10 2 7 -11 10 -11 10 -2 0 8 5 10 13 6 9 -5 9 -4 0 6 -9 10 -6 18
13 39 33 35 62 102 70 162 6 46 8 48 33 42 59 -14 99 -46 241 -198 56 -60 157
-132 168 -120 4 3 1 9 -5 13 -6 4 8 7 32 7 24 0 38 -3 32 -7 -9 -6 -9 -8 0 -8
6 0 18 6 25 14 10 10 19 11 32 4 15 -9 17 -7 11 11 -6 19 -3 21 17 18 13 -2
17 -2 10 0 -7 3 -10 8 -7 13 3 5 12 7 20 3 17 -6 47 15 40 27 -3 5 4 11 15 15
11 3 20 15 20 25 0 10 5 22 12 26 8 5 9 2 4 -11 -5 -15 -4 -16 9 -5 8 7 12 16
9 21 -3 5 0 9 5 9 6 0 11 9 11 21 0 11 5 17 10 14 6 -4 20 4 31 17 11 13 18
17 14 11 -3 -7 -1 -13 4 -13 6 0 11 5 11 12 0 7 15 28 33 47 l32 34 -40 -31
c-22 -16 -84 -54 -138 -82 -107 -57 -178 -71 -252 -51 -76 20 -335 206 -317
227 4 4 2 4 -4 1 -10 -6 -82 64 -133 129 -12 15 -21 23 -21 18z m684 -396 c-5
-8 -1 -9 12 -4 14 5 16 4 8 -4 -7 -7 -18 -7 -35 -1 -18 7 -20 10 -6 10 11 1
15 5 11 13 -4 7 -3 8 5 4 6 -4 8 -12 5 -18z"/>
<path d="M1650 2259 c14 -6 66 -13 115 -14 l90 -4 -85 8 c-47 5 -98 11 -115
15 -29 6 -29 6 -5 -5z"/>
<path d="M2180 2193 l-65 -68 68 65 c62 60 72 70 64 70 -1 0 -32 -30 -67 -67z"/>
<path d="M3450 2256 c0 -2 8 -10 18 -17 15 -13 16 -12 3 4 -13 16 -21 21 -21
13z"/>
<path d="M3555 2130 c47 -55 48 -56 37 -35 -6 11 -23 31 -39 45 l-28 25 30
-35z"/>
<path d="M2084 2108 l-19 -23 23 19 c21 18 27 26 19 26 -2 0 -12 -10 -23 -22z"/>
<path d="M1970 1993 c0 -4 5 -15 10 -23 8 -13 10 -13 10 2 0 9 -4 20 -10 23
-5 3 -10 3 -10 -2z"/>
<path d="M4049 1553 c-13 -17 -13 -17 6 -3 11 8 22 16 24 17 2 2 0 3 -6 3 -6
0 -17 -8 -24 -17z"/>
<path d="M1944 1464 c-18 -14 -18 -14 6 -3 31 14 36 19 24 19 -6 0 -19 -7 -30
-16z"/>
<path d="M1487 1437 c40 -33 90 -67 98 -67 4 0 -20 20 -54 45 -64 47 -92 61
-44 22z"/>
<path d="M1890 1435 c-14 -8 -20 -14 -14 -15 5 0 19 7 30 15 24 18 16 19 -16
0z"/>
<path d="M1820 1395 c-19 -14 -30 -25 -24 -25 10 1 73 50 63 50 -3 0 -20 -11
-39 -25z"/>
<path d="M422 26 c7 -8 15 -12 17 -11 5 6 -10 25 -20 25 -5 0 -4 -6 3 -14z"/>
</g>
</svg>
